<svg aria-label="Robinhood logo" height="35" role="img" viewBox="0 0 142 35" width="142" xmlns="http://www.w3.org/2000/svg" class="web-app-emotion-cache-gtc0gl"><path d="M52.2024 14.3828C48.9282 14.3828 46.9219 16.5015 46.9219 20.2251C46.9219 23.9488 48.9282 26.0514 52.2024 26.0514C55.4767 26.0514 57.4669 23.9327 57.4669 20.2251C57.4669 16.5175 55.5088 14.3828 52.2024 14.3828ZM52.2024 24.35C50.1319 24.35 49.2973 22.6487 49.2973 20.2412C49.3134 17.8015 50.1319 16.1162 52.2024 16.1162C54.2729 16.1162 55.1075 17.8015 55.1075 20.2251C55.1075 22.6487 54.2729 24.35 52.2024 24.35Z"></path><path d="M82.2005 14.3828C80.5794 14.3828 79.6325 15.1211 78.9262 16.0681C78.8299 16.1804 78.7497 16.2928 78.5892 16.2928C78.4287 16.2928 78.3003 16.1804 78.3003 15.9557V14.6075H76.1816V25.8427H78.4287V19.6473C78.4287 17.641 79.5041 16.2125 81.1893 16.2125C82.7783 16.2125 83.5648 17.1274 83.5648 19.1176V25.8427H85.8118V18.5238C85.8118 15.9397 84.6401 14.3828 82.2005 14.3828Z"></path><path d="M94.2064 14.3832C92.6976 14.3832 91.7186 15.0573 91.0605 15.908C90.9642 16.0204 90.884 16.1327 90.7234 16.1327C90.5629 16.1327 90.4345 16.0204 90.4345 15.7957V9.76074H88.1875V25.8431H90.4345V19.6477C90.4345 17.6414 91.5099 16.213 93.1952 16.213C94.7842 16.213 95.5706 17.1278 95.5706 19.1181V25.8431H97.8177V18.5242C97.8177 15.9401 96.646 14.3832 94.2064 14.3832Z"></path><path d="M104.831 14.3828C101.557 14.3828 99.5508 16.5015 99.5508 20.2251C99.5508 23.9488 101.557 26.0514 104.831 26.0514C108.106 26.0514 110.096 23.9327 110.096 20.2251C110.08 16.5015 108.138 14.3828 104.831 14.3828ZM104.831 24.35C102.761 24.35 101.926 22.6487 101.926 20.2412C101.926 17.8336 102.761 16.1323 104.831 16.1323C106.902 16.1323 107.736 17.8176 107.736 20.2412C107.72 22.6327 106.902 24.35 104.831 24.35Z"></path><path d="M116.613 14.3828C113.338 14.3828 111.332 16.5015 111.332 20.2251C111.332 23.9488 113.338 26.0514 116.613 26.0514C119.887 26.0514 121.877 23.9327 121.877 20.2251C121.877 16.5175 119.919 14.3828 116.613 14.3828ZM116.613 24.35C114.542 24.35 113.707 22.6487 113.707 20.2412C113.707 17.8336 114.542 16.1323 116.613 16.1323C118.683 16.1323 119.518 17.8176 119.518 20.2412C119.518 22.6648 118.683 24.35 116.613 24.35Z"></path><path d="M73.7422 14.6074H71.4951V25.8426H73.7422V14.6074Z"></path><path d="M73.806 9.76074H71.3984V12.3288H73.806V9.76074Z"></path><path d="M131.217 9.76074V15.5067C131.217 15.7315 131.089 15.8438 130.929 15.8438C130.816 15.8438 130.656 15.7315 130.591 15.6672C129.789 14.8166 128.922 14.3832 127.558 14.3832C125.134 14.3832 123.16 16.2451 123.16 20.2255C123.16 24.206 125.134 26.0518 127.558 26.0518C128.97 26.0518 129.853 25.5061 130.704 24.6554C130.832 24.527 130.928 24.4468 131.041 24.4468C131.201 24.4468 131.33 24.5591 131.33 24.7838V25.8431H133.464V9.76074H131.217ZM128.409 24.3344C126.338 24.3505 125.503 22.6331 125.503 20.2255C125.503 17.818 126.338 16.1167 128.409 16.1167C130.479 16.1167 131.314 17.8019 131.314 20.2255C131.314 22.6491 130.511 24.3344 128.409 24.3344Z"></path><path d="M65.2346 14.3832C63.8704 14.3832 63.0036 14.8166 62.2011 15.6672C62.1369 15.7315 61.9764 15.8438 61.8641 15.8438C61.7036 15.8438 61.5752 15.7315 61.5752 15.5067V9.76074H59.3281V25.8431H61.4468V24.7838C61.4468 24.5591 61.5752 24.4468 61.7357 24.4468C61.848 24.4468 61.9443 24.511 62.0727 24.6554C62.9234 25.5061 63.8062 26.0518 65.2186 26.0518C67.6422 26.0518 69.6324 24.206 69.6324 20.2255C69.6324 16.2451 67.6582 14.3832 65.2346 14.3832ZM64.3679 24.3505C62.2814 24.3505 61.4628 22.6491 61.4628 20.2416C61.4628 17.834 62.2653 16.1327 64.3679 16.1327C66.4705 16.1327 67.273 17.818 67.273 20.2416C67.273 22.6331 66.4384 24.3505 64.3679 24.3505Z"></path><path d="M43.391 18.6843C43.2145 18.6201 43.1503 18.5078 43.1503 18.3633C43.1503 18.2028 43.2145 18.1386 43.4231 18.0263C44.6429 17.4485 45.3813 16.2928 45.3813 14.7199C45.3813 11.9593 43.6478 10.29 40.1649 10.29H34.1621V25.8428H36.5376V19.4227H40.3736C42.1873 19.4227 42.7972 20.1931 42.8453 21.445L43.07 25.8428H45.4134L45.1726 21.2845C45.0763 19.7758 44.4824 19.0856 43.391 18.6843ZM40.0044 17.5769H36.5376V12.184H40.0044C41.802 12.184 42.9095 13.0667 42.9095 14.8804C42.9095 16.6941 41.802 17.5769 40.0044 17.5769Z"></path><path d="M19.8709 11.4141H14.9916C14.8151 11.4141 14.6658 11.4847 14.5422 11.6388L11.0433 15.9723C10.5297 16.6144 10.4013 17.2082 10.4013 18.0589V22.4888C9.26169 25.6828 8.53942 27.8496 8.00976 29.8077C7.97766 29.9329 8.02581 30.0003 8.13816 30.0003H8.66782C8.76413 30.0003 8.86043 29.9521 8.89253 29.8719C12.8891 19.696 17.2387 14.6562 19.9672 11.6388C20.0796 11.5104 20.0314 11.4141 19.8709 11.4141Z"></path><path d="M20.0158 6.42219C19.6884 6.54898 19.3738 6.76406 19.2293 6.88764C17.7848 8.12352 16.8218 9.10258 15.9069 10.0656C15.7946 10.178 15.8427 10.2903 16.0032 10.2903H21.4122C21.9097 10.2903 22.1986 10.5792 22.1986 11.0768V17.1759C22.1986 17.3364 22.3271 17.3845 22.4234 17.2401L25.6816 12.9868C26.2112 12.2966 26.3717 12.0879 26.5162 11.1249C26.7088 9.7125 26.5964 7.54571 25.7458 6.64689C24.9914 5.84437 21.5887 5.81227 20.0158 6.42219Z"></path><path d="M20.8333 12.6337C17.4788 16.3735 14.8626 20.3058 12.439 25.0406C12.378 25.1594 12.4551 25.2653 12.5995 25.2172L17.6072 23.6763C18.1722 23.503 18.49 23.2751 18.7628 22.8257L20.9938 19.1502C21.042 19.0539 21.058 18.9415 21.058 18.8612V12.73C21.058 12.5695 20.9457 12.5053 20.8333 12.6337Z"></path></svg>